<svg width="154" height="119" viewBox="0 0 154 119" fill="none" xmlns="http://www.w3.org/2000/svg">
<rect x="0.334229" width="152.785" height="119" rx="16" fill="#C82586"/>
<mask id="mask0" mask-type="alpha" maskUnits="userSpaceOnUse" x="0" y="0" width="154" height="119">
<rect x="0.334229" width="152.785" height="119" rx="16" fill="#C82586"/>
</mask>
<g mask="url(#mask0)">
</g>
<g clip-path="url(#clip0)">
<path d="M35.691 17.7523C29.8577 14.3066 22.2179 16.1005 18.6609 21.7511C15.1038 27.4018 16.9556 34.8022 22.7889 38.2479C23.1139 38.4399 23.4447 38.6153 23.7799 38.7751C23.7853 38.7776 23.7908 38.7803 23.7963 38.7828C25.5288 39.6052 27.3833 40.0001 29.2196 40.0001C33.4011 40.0001 37.4874 37.9532 39.8191 34.2491C43.3762 28.5984 41.5243 21.198 35.691 17.7523ZM26.2338 18.1974L26.0825 18.7795L22.8517 20.5409L22.1929 20.3803C23.3451 19.3776 24.7176 18.6318 26.2338 18.1974ZM23.2568 31.1204L23.083 31.3068C22.5423 31.8863 22.3103 32.6604 22.4462 33.4303L22.936 36.2029C20.9583 34.7819 19.5678 32.7557 18.9806 30.4091C18.5371 28.637 18.5877 26.8242 19.1066 25.1208L22.1482 26.807C22.4498 26.9742 22.6012 27.3189 22.5164 27.6453C22.2972 28.4889 22.5348 29.3699 23.1518 30.0018L23.2447 30.097C23.522 30.3809 23.5272 30.8305 23.2568 31.1204ZM29.6935 38.2193L29.5039 37.0988L29.6567 37.0333C30.2077 36.7967 30.8514 36.9767 31.1873 37.4615L31.5455 37.9785C30.9304 38.1122 30.3111 38.1924 29.6935 38.2193ZM38.253 33.324C37.0866 35.1768 35.3836 36.5912 33.3587 37.4174C33.3431 37.3882 33.326 37.3595 33.3066 37.3315L32.7104 36.4711C31.8772 35.2686 30.2802 34.8218 28.9132 35.4088L28.1125 35.7526C27.7308 35.9166 27.5116 36.3095 27.5791 36.7086L27.821 38.1383C26.8542 38.0116 25.9071 37.7532 25.0027 37.3671L24.2544 33.1305C24.2138 32.9012 24.283 32.6706 24.444 32.498L24.6179 32.3117C25.5258 31.3383 25.5081 29.8291 24.5776 28.876L24.4846 28.7808C24.3008 28.5926 24.2301 28.3302 24.2953 28.0789C24.5799 26.9832 24.0717 25.826 23.0594 25.2647L19.7859 23.4501C19.921 23.1877 20.0676 22.9294 20.227 22.6762C20.4025 22.3975 20.5904 22.1289 20.7895 21.8704L22.7588 22.3505C22.8326 22.3685 22.9078 22.3774 22.9827 22.3774C23.139 22.3774 23.2941 22.3386 23.4325 22.2632L27.3256 20.1408C27.5449 20.0212 27.7039 19.8197 27.7652 19.5833L28.1936 17.934C28.2034 17.8965 28.2096 17.859 28.2142 17.8216C28.5628 17.788 28.9115 17.7702 29.2592 17.7702C31.1745 17.7702 33.059 18.2789 34.7358 19.2694C34.931 19.3847 35.1211 19.506 35.3067 19.632C35.3056 19.6333 35.3043 19.6342 35.3031 19.6354L33.809 21.2173L29.8716 21.3654C29.5669 21.3768 29.2881 21.5342 29.1276 21.7851L27.4123 24.4664C27.2131 24.7777 27.2316 25.1756 27.4589 25.4684L28.5446 26.867C28.7693 27.1566 28.892 27.5155 28.8901 27.8778L28.8804 29.7013C28.8765 30.4225 29.2002 31.1035 29.7683 31.5696C30.226 31.9453 30.7995 32.1462 31.3888 32.1462C31.531 32.1462 31.6742 32.1345 31.8168 32.1107L33.9078 31.7622C34.678 31.6339 35.3935 31.2562 35.9225 30.6989C36.2381 30.3663 36.6687 30.1751 37.1348 30.1607C37.6004 30.1456 38.0432 30.3104 38.3802 30.6227L38.9682 31.1679C39.045 31.2391 39.1315 31.2938 39.2229 31.3341C38.9767 32.0213 38.6533 32.6881 38.253 33.324ZM39.7037 29.3901L39.6485 29.339C38.9526 28.6938 38.0393 28.3548 37.0762 28.3846C36.1133 28.4144 35.224 28.8091 34.5721 29.4962C34.316 29.766 33.9696 29.9488 33.5967 30.011L31.5058 30.3595C31.235 30.4046 31.0439 30.2875 30.9539 30.2138C30.864 30.14 30.7133 29.9765 30.7147 29.7105L30.7244 27.8871C30.7284 27.1387 30.4749 26.3972 30.0107 25.7991L29.302 24.8861L30.43 23.1227L34.2629 22.9786C34.5077 22.9694 34.7386 22.8657 34.904 22.6905L36.6568 20.835C36.6763 20.8144 36.6942 20.7929 36.7113 20.7711C38.0706 22.0845 39.0356 23.7378 39.4994 25.5912C39.8156 26.855 39.8804 28.1394 39.7037 29.3901Z" fill="white"/>
</g>
<path d="M25.7316 89.192C25.4756 88.7227 25.1236 88.3653 24.6756 88.12C24.2276 87.8747 23.7049 87.752 23.1076 87.752C22.4462 87.752 21.8596 87.9013 21.3476 88.2C20.8356 88.4987 20.4356 88.9253 20.1476 89.48C19.8596 90.0347 19.7156 90.6747 19.7156 91.4C19.7156 92.1467 19.8596 92.7973 20.1476 93.352C20.4462 93.9067 20.8569 94.3333 21.3796 94.632C21.9022 94.9307 22.5102 95.08 23.2036 95.08C24.0569 95.08 24.7556 94.856 25.2996 94.408C25.8436 93.9493 26.2009 93.3147 26.3716 92.504H22.5316V90.792H28.5796V92.744C28.4302 93.5227 28.1102 94.2427 27.6196 94.904C27.1289 95.5653 26.4942 96.0987 25.7156 96.504C24.9476 96.8987 24.0836 97.096 23.1236 97.096C22.0462 97.096 21.0702 96.856 20.1956 96.376C19.3316 95.8853 18.6489 95.208 18.1476 94.344C17.6569 93.48 17.4116 92.4987 17.4116 91.4C17.4116 90.3013 17.6569 89.32 18.1476 88.456C18.6489 87.5813 19.3316 86.904 20.1956 86.424C21.0702 85.9333 22.0409 85.688 23.1076 85.688C24.3662 85.688 25.4596 85.9973 26.3876 86.616C27.3156 87.224 27.9556 88.0827 28.3076 89.192H25.7316ZM38.4768 92.376C38.4768 92.696 38.4555 92.984 38.4128 93.24H31.9328C31.9861 93.88 32.2101 94.3813 32.6048 94.744C32.9995 95.1067 33.4848 95.288 34.0608 95.288C34.8928 95.288 35.4848 94.9307 35.8368 94.216H38.2528C37.9968 95.0693 37.5061 95.7733 36.7808 96.328C36.0555 96.872 35.1648 97.144 34.1088 97.144C33.2555 97.144 32.4875 96.9573 31.8048 96.584C31.1328 96.2 30.6048 95.6613 30.2208 94.968C29.8475 94.2747 29.6608 93.4747 29.6608 92.568C29.6608 91.6507 29.8475 90.8453 30.2208 90.152C30.5941 89.4587 31.1168 88.9253 31.7888 88.552C32.4608 88.1787 33.2341 87.992 34.1088 87.992C34.9515 87.992 35.7035 88.1733 36.3648 88.536C37.0368 88.8987 37.5541 89.416 37.9168 90.088C38.2901 90.7493 38.4768 91.512 38.4768 92.376ZM36.1568 91.736C36.1461 91.16 35.9381 90.7013 35.5328 90.36C35.1275 90.008 34.6315 89.832 34.0448 89.832C33.4901 89.832 33.0208 90.0027 32.6368 90.344C32.2635 90.6747 32.0341 91.1387 31.9488 91.736H36.1568ZM44.0478 97.144C43.1945 97.144 42.4265 96.9573 41.7438 96.584C41.0611 96.2 40.5225 95.6613 40.1278 94.968C39.7438 94.2747 39.5518 93.4747 39.5518 92.568C39.5518 91.6613 39.7491 90.8613 40.1438 90.168C40.5491 89.4747 41.0985 88.9413 41.7918 88.568C42.4851 88.184 43.2585 87.992 44.1118 87.992C44.9651 87.992 45.7385 88.184 46.4318 88.568C47.1251 88.9413 47.6691 89.4747 48.0638 90.168C48.4691 90.8613 48.6718 91.6613 48.6718 92.568C48.6718 93.4747 48.4638 94.2747 48.0478 94.968C47.6425 95.6613 47.0878 96.2 46.3838 96.584C45.6905 96.9573 44.9118 97.144 44.0478 97.144ZM44.0478 95.192C44.4531 95.192 44.8318 95.096 45.1838 94.904C45.5465 94.7013 45.8345 94.4027 46.0478 94.008C46.2611 93.6133 46.3678 93.1333 46.3678 92.568C46.3678 91.7253 46.1438 91.08 45.6958 90.632C45.2585 90.1733 44.7198 89.944 44.0798 89.944C43.4398 89.944 42.9011 90.1733 42.4638 90.632C42.0371 91.08 41.8238 91.7253 41.8238 92.568C41.8238 93.4107 42.0318 94.0613 42.4478 94.52C42.8745 94.968 43.4078 95.192 44.0478 95.192ZM53.7869 87.992C54.4483 87.992 55.0296 88.1253 55.5309 88.392C56.0323 88.648 56.4269 88.984 56.7149 89.4V88.136H58.9709V97.064C58.9709 97.8853 58.8056 98.616 58.4749 99.256C58.1443 99.9067 57.6483 100.419 56.9869 100.792C56.3256 101.176 55.5256 101.368 54.5869 101.368C53.3283 101.368 52.2936 101.075 51.4829 100.488C50.6829 99.9013 50.2296 99.1013 50.1229 98.088H52.3469C52.4643 98.4933 52.7149 98.8133 53.0989 99.048C53.4936 99.2933 53.9683 99.416 54.5229 99.416C55.1736 99.416 55.7016 99.2187 56.1069 98.824C56.5123 98.44 56.7149 97.8533 56.7149 97.064V95.688C56.4269 96.104 56.0269 96.4507 55.5149 96.728C55.0136 97.0053 54.4376 97.144 53.7869 97.144C53.0403 97.144 52.3576 96.952 51.7389 96.568C51.1203 96.184 50.6296 95.6453 50.2669 94.952C49.9149 94.248 49.7389 93.4427 49.7389 92.536C49.7389 91.64 49.9149 90.8453 50.2669 90.152C50.6296 89.4587 51.1149 88.9253 51.7229 88.552C52.3416 88.1787 53.0296 87.992 53.7869 87.992ZM56.7149 92.568C56.7149 92.024 56.6083 91.56 56.3949 91.176C56.1816 90.7813 55.8936 90.4827 55.5309 90.28C55.1683 90.0667 54.7789 89.96 54.3629 89.96C53.9469 89.96 53.5629 90.0613 53.2109 90.264C52.8589 90.4667 52.5709 90.7653 52.3469 91.16C52.1336 91.544 52.0269 92.0027 52.0269 92.536C52.0269 93.0693 52.1336 93.5387 52.3469 93.944C52.5709 94.3387 52.8589 94.6427 53.2109 94.856C53.5736 95.0693 53.9576 95.176 54.3629 95.176C54.7789 95.176 55.1683 95.0747 55.5309 94.872C55.8936 94.6587 56.1816 94.36 56.3949 93.976C56.6083 93.5813 56.7149 93.112 56.7149 92.568ZM63.3987 89.512C63.6867 89.0427 64.06 88.6747 64.5187 88.408C64.988 88.1413 65.5214 88.008 66.1187 88.008V90.36H65.5267C64.8227 90.36 64.2894 90.5253 63.9267 90.856C63.5747 91.1867 63.3987 91.7627 63.3987 92.584V97H61.1587V88.136H63.3987V89.512ZM67.0514 92.536C67.0514 91.64 67.2274 90.8453 67.5794 90.152C67.9421 89.4587 68.4274 88.9253 69.0354 88.552C69.6541 88.1787 70.3421 87.992 71.0994 87.992C71.7608 87.992 72.3368 88.1253 72.8274 88.392C73.3288 88.6587 73.7288 88.9947 74.0274 89.4V88.136H76.2834V97H74.0274V95.704C73.7394 96.12 73.3394 96.4667 72.8274 96.744C72.3261 97.0107 71.7448 97.144 71.0834 97.144C70.3368 97.144 69.6541 96.952 69.0354 96.568C68.4274 96.184 67.9421 95.6453 67.5794 94.952C67.2274 94.248 67.0514 93.4427 67.0514 92.536ZM74.0274 92.568C74.0274 92.024 73.9208 91.56 73.7074 91.176C73.4941 90.7813 73.2061 90.4827 72.8434 90.28C72.4808 90.0667 72.0914 89.96 71.6754 89.96C71.2594 89.96 70.8754 90.0613 70.5234 90.264C70.1714 90.4667 69.8834 90.7653 69.6594 91.16C69.4461 91.544 69.3394 92.0027 69.3394 92.536C69.3394 93.0693 69.4461 93.5387 69.6594 93.944C69.8834 94.3387 70.1714 94.6427 70.5234 94.856C70.8861 95.0693 71.2701 95.176 71.6754 95.176C72.0914 95.176 72.4808 95.0747 72.8434 94.872C73.2061 94.6587 73.4941 94.36 73.7074 93.976C73.9208 93.5813 74.0274 93.112 74.0274 92.568ZM82.5352 89.976H80.9832V97H78.7112V89.976H77.7032V88.136H78.7112V87.688C78.7112 86.6 79.0205 85.8 79.6392 85.288C80.2579 84.776 81.1912 84.536 82.4392 84.568V86.456C81.8952 86.4453 81.5165 86.536 81.3032 86.728C81.0899 86.92 80.9832 87.2667 80.9832 87.768V88.136H82.5352V89.976ZM85.1228 87.08C84.7281 87.08 84.3975 86.9573 84.1308 86.712C83.8748 86.456 83.7468 86.1413 83.7468 85.768C83.7468 85.3947 83.8748 85.0853 84.1308 84.84C84.3975 84.584 84.7281 84.456 85.1228 84.456C85.5175 84.456 85.8428 84.584 86.0988 84.84C86.3655 85.0853 86.4988 85.3947 86.4988 85.768C86.4988 86.1413 86.3655 86.456 86.0988 86.712C85.8428 86.9573 85.5175 87.08 85.1228 87.08ZM86.2268 88.136V97H83.9868V88.136H86.2268ZM87.8639 92.536C87.8639 91.64 88.0399 90.8453 88.3919 90.152C88.7546 89.4587 89.2399 88.9253 89.8479 88.552C90.4666 88.1787 91.1546 87.992 91.9119 87.992C92.5733 87.992 93.1493 88.1253 93.6399 88.392C94.1413 88.6587 94.5413 88.9947 94.8399 89.4V88.136H97.0959V97H94.8399V95.704C94.5519 96.12 94.1519 96.4667 93.6399 96.744C93.1386 97.0107 92.5573 97.144 91.8959 97.144C91.1493 97.144 90.4666 96.952 89.8479 96.568C89.2399 96.184 88.7546 95.6453 88.3919 94.952C88.0399 94.248 87.8639 93.4427 87.8639 92.536ZM94.8399 92.568C94.8399 92.024 94.7333 91.56 94.5199 91.176C94.3066 90.7813 94.0186 90.4827 93.6559 90.28C93.2933 90.0667 92.9039 89.96 92.4879 89.96C92.0719 89.96 91.6879 90.0613 91.3359 90.264C90.9839 90.4667 90.6959 90.7653 90.4719 91.16C90.2586 91.544 90.1519 92.0027 90.1519 92.536C90.1519 93.0693 90.2586 93.5387 90.4719 93.944C90.6959 94.3387 90.9839 94.6427 91.3359 94.856C91.6986 95.0693 92.0826 95.176 92.4879 95.176C92.9039 95.176 93.2933 95.0747 93.6559 94.872C94.0186 94.6587 94.3066 94.36 94.5199 93.976C94.7333 93.5813 94.8399 93.112 94.8399 92.568Z" fill="white"/>
<path d="M128.343 30C127.935 30 127.536 30.1173 127.196 30.3371C126.857 30.5568 126.592 30.8692 126.436 31.2346C126.28 31.6001 126.239 32.0022 126.318 32.3902C126.398 32.7781 126.595 33.1345 126.884 33.4142C127.172 33.6939 127.54 33.8844 127.941 33.9616C128.341 34.0387 128.756 33.9991 129.134 33.8478C129.511 33.6964 129.833 33.44 130.06 33.1111C130.287 32.7822 130.408 32.3956 130.408 32C130.408 31.4696 130.191 30.9609 129.803 30.5858C129.416 30.2107 128.891 30 128.343 30Z" fill="white"/>
<path d="M129.491 25.6629C129.151 25.8827 128.752 26 128.343 26C127.796 26 127.271 25.7893 126.884 25.4142C126.496 25.0391 126.279 24.5304 126.279 24C126.279 23.6044 126.4 23.2178 126.627 22.8889C126.854 22.56 127.176 22.3036 127.553 22.1522C127.931 22.0009 128.346 21.9613 128.746 22.0384C129.147 22.1156 129.515 22.3061 129.803 22.5858C130.092 22.8655 130.289 23.2219 130.368 23.6098C130.448 23.9978 130.407 24.3999 130.251 24.7654C130.095 25.1308 129.83 25.4432 129.491 25.6629Z" fill="white"/>
<defs>
<clipPath id="clip0">
<rect width="24.7759" height="24" fill="white" transform="translate(16.8516 16)"/>
</clipPath>
</defs>
</svg>
