<svg width="155" height="119" viewBox="0 0 155 119" fill="none" xmlns="http://www.w3.org/2000/svg">
<rect x="0.880859" width="153.817" height="119" rx="16" fill="#C82586"/>
<path d="M20.7419 85.832V97H18.5019V85.832H20.7419ZM27.8671 88.008C28.9231 88.008 29.7764 88.344 30.4271 89.016C31.0777 89.6773 31.4031 90.6053 31.4031 91.8V97H29.1631V92.104C29.1631 91.4 28.9871 90.8613 28.6351 90.488C28.2831 90.104 27.8031 89.912 27.1951 89.912C26.5764 89.912 26.0857 90.104 25.7231 90.488C25.3711 90.8613 25.1951 91.4 25.1951 92.104V97H22.9551V88.136H25.1951V89.24C25.4937 88.856 25.8724 88.5573 26.3311 88.344C26.8004 88.12 27.3124 88.008 27.8671 88.008ZM37.0052 87.992C37.6665 87.992 38.2479 88.1253 38.7492 88.392C39.2505 88.648 39.6452 88.984 39.9332 89.4V88.136H42.1892V97.064C42.1892 97.8853 42.0239 98.616 41.6932 99.256C41.3625 99.9067 40.8665 100.419 40.2052 100.792C39.5439 101.176 38.7439 101.368 37.8052 101.368C36.5465 101.368 35.5119 101.075 34.7012 100.488C33.9012 99.9013 33.4479 99.1013 33.3412 98.088H35.5652C35.6825 98.4933 35.9332 98.8133 36.3172 99.048C36.7119 99.2933 37.1865 99.416 37.7412 99.416C38.3919 99.416 38.9199 99.2187 39.3252 98.824C39.7305 98.44 39.9332 97.8533 39.9332 97.064V95.688C39.6452 96.104 39.2452 96.4507 38.7332 96.728C38.2319 97.0053 37.6559 97.144 37.0052 97.144C36.2585 97.144 35.5759 96.952 34.9572 96.568C34.3385 96.184 33.8479 95.6453 33.4852 94.952C33.1332 94.248 32.9572 93.4427 32.9572 92.536C32.9572 91.64 33.1332 90.8453 33.4852 90.152C33.8479 89.4587 34.3332 88.9253 34.9412 88.552C35.5599 88.1787 36.2479 87.992 37.0052 87.992ZM39.9332 92.568C39.9332 92.024 39.8265 91.56 39.6132 91.176C39.3999 90.7813 39.1119 90.4827 38.7492 90.28C38.3865 90.0667 37.9972 89.96 37.5812 89.96C37.1652 89.96 36.7812 90.0613 36.4292 90.264C36.0772 90.4667 35.7892 90.7653 35.5652 91.16C35.3519 91.544 35.2452 92.0027 35.2452 92.536C35.2452 93.0693 35.3519 93.5387 35.5652 93.944C35.7892 94.3387 36.0772 94.6427 36.4292 94.856C36.7919 95.0693 37.1759 95.176 37.5812 95.176C37.9972 95.176 38.3865 95.0747 38.7492 94.872C39.1119 94.6587 39.3999 94.36 39.6132 93.976C39.8265 93.5813 39.9332 93.112 39.9332 92.568ZM46.6169 85.16V97H44.3769V85.16H46.6169ZM57.0701 92.376C57.0701 92.696 57.0487 92.984 57.0061 93.24H50.5261C50.5794 93.88 50.8034 94.3813 51.1981 94.744C51.5927 95.1067 52.0781 95.288 52.6541 95.288C53.4861 95.288 54.0781 94.9307 54.4301 94.216H56.8461C56.5901 95.0693 56.0994 95.7733 55.3741 96.328C54.6487 96.872 53.7581 97.144 52.7021 97.144C51.8487 97.144 51.0807 96.9573 50.3981 96.584C49.7261 96.2 49.1981 95.6613 48.8141 94.968C48.4407 94.2747 48.2541 93.4747 48.2541 92.568C48.2541 91.6507 48.4407 90.8453 48.8141 90.152C49.1874 89.4587 49.7101 88.9253 50.3821 88.552C51.0541 88.1787 51.8274 87.992 52.7021 87.992C53.5447 87.992 54.2967 88.1733 54.9581 88.536C55.6301 88.8987 56.1474 89.416 56.5101 90.088C56.8834 90.7493 57.0701 91.512 57.0701 92.376ZM54.7501 91.736C54.7394 91.16 54.5314 90.7013 54.1261 90.36C53.7207 90.008 53.2247 89.832 52.6381 89.832C52.0834 89.832 51.6141 90.0027 51.2301 90.344C50.8567 90.6747 50.6274 91.1387 50.5421 91.736H54.7501ZM52.6701 86.136L50.2861 87.48V85.848L52.6701 84.552L55.0381 85.848V87.48L52.6701 86.136ZM62.0971 97.144C61.3717 97.144 60.7211 97.016 60.1451 96.76C59.5691 96.4933 59.1104 96.136 58.7691 95.688C58.4384 95.24 58.2571 94.744 58.2251 94.2H60.4811C60.5237 94.5413 60.6891 94.824 60.9771 95.048C61.2757 95.272 61.6437 95.384 62.0811 95.384C62.5077 95.384 62.8384 95.2987 63.0731 95.128C63.3184 94.9573 63.4411 94.7387 63.4411 94.472C63.4411 94.184 63.2917 93.9707 62.9931 93.832C62.7051 93.6827 62.2411 93.5227 61.6011 93.352C60.9397 93.192 60.3957 93.0267 59.9691 92.856C59.5531 92.6853 59.1904 92.424 58.8811 92.072C58.5824 91.72 58.4331 91.2453 58.4331 90.648C58.4331 90.1573 58.5717 89.7093 58.8491 89.304C59.1371 88.8987 59.5424 88.5787 60.0651 88.344C60.5984 88.1093 61.2224 87.992 61.9371 87.992C62.9931 87.992 63.8357 88.2587 64.4651 88.792C65.0944 89.3147 65.4411 90.024 65.5051 90.92H63.3611C63.3291 90.568 63.1797 90.2907 62.9131 90.088C62.6571 89.8747 62.3104 89.768 61.8731 89.768C61.4677 89.768 61.1531 89.8427 60.9291 89.992C60.7157 90.1413 60.6091 90.3493 60.6091 90.616C60.6091 90.9147 60.7584 91.144 61.0571 91.304C61.3557 91.4533 61.8197 91.608 62.4491 91.768C63.0891 91.928 63.6171 92.0933 64.0331 92.264C64.4491 92.4347 64.8064 92.7013 65.1051 93.064C65.4144 93.416 65.5744 93.8853 65.5851 94.472C65.5851 94.984 65.4411 95.4427 65.1531 95.848C64.8757 96.2533 64.4704 96.5733 63.9371 96.808C63.4144 97.032 62.8011 97.144 62.0971 97.144Z" fill="white"/>
<path d="M129.922 30C129.514 30 129.115 30.1173 128.775 30.3371C128.435 30.5568 128.171 30.8692 128.015 31.2346C127.858 31.6001 127.817 32.0022 127.897 32.3902C127.977 32.7781 128.173 33.1345 128.462 33.4142C128.751 33.6939 129.119 33.8844 129.519 33.9616C129.92 34.0387 130.335 33.9991 130.712 33.8478C131.089 33.6964 131.412 33.44 131.639 33.1111C131.866 32.7822 131.987 32.3956 131.987 32C131.987 31.4696 131.769 30.9609 131.382 30.5858C130.995 30.2107 130.47 30 129.922 30Z" fill="white"/>
<path d="M131.069 25.6629C130.73 25.8827 130.33 26 129.922 26C129.374 26 128.849 25.7893 128.462 25.4142C128.075 25.0391 127.857 24.5304 127.857 24C127.857 23.6044 127.979 23.2178 128.205 22.8889C128.432 22.56 128.755 22.3036 129.132 22.1522C129.509 22.0009 129.924 21.9613 130.325 22.0384C130.725 22.1156 131.093 22.3061 131.382 22.5858C131.671 22.8655 131.867 23.2219 131.947 23.6098C132.027 23.9978 131.986 24.3999 131.83 24.7654C131.673 25.1308 131.409 25.4432 131.069 25.6629Z" fill="white"/>
<g clip-path="url(#clip0)">
<path d="M41.0706 20.6532H29.0505L24.3323 36.7425C24.1896 37.1713 23.7848 37.4682 23.3199 37.4837C23.3068 37.4837 23.2941 37.484 23.2817 37.484C22.832 37.484 22.4254 37.219 22.2572 36.8124L20.3283 32.1412H18.501C17.8916 32.1413 17.3979 31.6628 17.3979 31.0726C17.3979 30.4824 17.8921 30.0039 18.501 30.0039H21.0753C21.5259 30.0039 21.9322 30.2699 22.0998 30.6759L23.1687 33.2644L27.1957 19.2578C27.3424 18.8157 27.7669 18.516 28.2461 18.516H41.0707C41.6803 18.516 42.174 18.9945 42.174 19.5845C42.174 20.1745 41.6799 20.6532 41.0706 20.6532ZM41.6651 35.013L37.3166 30.2814L41.4605 25.8255C41.5337 25.7472 41.5515 25.6346 41.5081 25.538C41.4634 25.4416 41.3649 25.3794 41.2558 25.3794H38.6342C38.5541 25.3794 38.4785 25.4133 38.4253 25.472L35.6437 28.5965L32.8835 25.473C32.8313 25.4136 32.7548 25.3794 32.674 25.3794H29.9327C29.824 25.3794 29.7254 25.4413 29.6814 25.5371C29.6364 25.6332 29.6548 25.7457 29.7272 25.8241L33.8249 30.2815L29.5106 35.014C29.4386 35.0929 29.4214 35.2052 29.4654 35.3007C29.5106 35.3968 29.6091 35.4578 29.7171 35.4578H32.4343C32.5161 35.4578 32.5936 35.4229 32.6458 35.3618L35.5252 32.0148L38.473 35.3643C38.5259 35.4241 38.6024 35.4582 38.6832 35.4582H41.4598C41.5688 35.4582 41.6674 35.3968 41.7114 35.3007C41.7558 35.2042 41.738 35.0918 41.6651 35.013Z" fill="white"/>
</g>
<defs>
<clipPath id="clip0">
<rect width="24.7759" height="24" fill="white" transform="translate(17.3979 16)"/>
</clipPath>
</defs>
</svg>
