<svg width="154" height="40" viewBox="0 0 154 40" fill="none" xmlns="http://www.w3.org/2000/svg">
<path d="M10.423 25.6545L10.4674 25.3951L10.2788 25.2116L0.651671 15.8444C0.512594 15.7038 0.46669 15.5015 0.524497 15.3281C0.587375 15.1395 0.745556 15.0094 0.925383 14.9857L0.925389 14.9858L0.93196 14.9848L14.232 13.0548L14.4921 13.0171L14.6085 12.7814L20.5585 0.731377L20.56 0.728299C20.621 0.602609 20.7776 0.5 21.0014 0.5C21.2244 0.5 21.3867 0.602401 21.4524 0.732569C21.4526 0.732915 21.4528 0.733261 21.4529 0.733607L27.3816 12.7709L27.4979 13.007L27.7584 13.0448L41.0584 14.9748L41.0583 14.9749L41.0649 14.9757C41.2441 14.9993 41.4018 15.1286 41.4652 15.3162C41.5246 15.5017 41.4769 15.6949 41.3385 15.8346C41.3379 15.8352 41.3372 15.8358 41.3366 15.8364L31.7211 25.212L31.5329 25.3955L31.5773 25.6545L33.8463 38.888C33.8464 38.8889 33.8466 38.8898 33.8467 38.8907C33.8777 39.0932 33.7963 39.279 33.6508 39.3822L33.6474 39.3847C33.5561 39.4506 33.4595 39.48 33.3502 39.48C33.2658 39.48 33.1898 39.4631 33.1255 39.4288L33.1228 39.4274L21.2328 33.1774L21.0002 33.0551L20.7675 33.1774L8.88118 39.4255C8.88066 39.4258 8.88014 39.426 8.87962 39.4263C8.72041 39.5076 8.51323 39.496 8.35382 39.3853C8.19764 39.2671 8.12392 39.0849 8.15361 38.8908C8.15375 38.8898 8.15389 38.8889 8.15404 38.888L10.423 25.6545Z" fill="#291F71" stroke="#291F71"/>
<path d="M65.9302 25.57L63.6602 38.81C63.6002 39.19 63.7502 39.56 64.0602 39.79C64.3702 40.01 64.7802 40.04 65.1102 39.87L77.0002 33.62L88.8902 39.87C89.0402 39.95 89.2002 39.98 89.3502 39.98C89.5602 39.98 89.7602 39.92 89.9402 39.79C90.2502 39.57 90.4002 39.19 90.3402 38.81L88.0702 25.57L97.6902 16.19C97.9602 15.92 98.0602 15.53 97.9402 15.16C97.8202 14.8 97.5102 14.53 97.1302 14.48L83.8302 12.55L77.9002 0.51C77.5602 -0.17 76.4402 -0.17 76.1102 0.51L70.1602 12.56L56.8602 14.49C56.4802 14.54 56.1702 14.81 56.0502 15.17C55.9302 15.53 56.0302 15.93 56.3002 16.2L65.9302 25.57ZM70.9602 14.46C71.2902 14.41 71.5702 14.21 71.7102 13.91L77.0002 3.21L82.2802 13.91C82.4302 14.21 82.7102 14.41 83.0302 14.46L94.8402 16.18L86.2902 24.51C86.0502 24.74 85.9502 25.07 86.0002 25.4L88.0202 37.16L77.4602 31.61C77.1702 31.46 76.8202 31.46 76.5302 31.61L65.9702 37.16L67.9902 25.4C68.0502 25.08 67.9402 24.74 67.7002 24.51L59.1502 16.18L70.9602 14.46Z" fill="#291F71"/>
<path d="M121.93 25.57L119.66 38.81C119.6 39.19 119.75 39.56 120.06 39.79C120.37 40.01 120.78 40.04 121.11 39.87L133 33.62L144.89 39.87C145.04 39.95 145.2 39.98 145.35 39.98C145.56 39.98 145.76 39.92 145.94 39.79C146.25 39.57 146.4 39.19 146.34 38.81L144.07 25.57L153.69 16.19C153.96 15.92 154.06 15.53 153.94 15.16C153.82 14.8 153.51 14.53 153.13 14.48L139.83 12.55L133.9 0.51C133.56 -0.17 132.44 -0.17 132.11 0.51L126.16 12.56L112.86 14.49C112.48 14.54 112.17 14.81 112.05 15.17C111.93 15.53 112.03 15.93 112.3 16.2L121.93 25.57ZM126.96 14.46C127.29 14.41 127.57 14.21 127.71 13.91L133 3.21L138.28 13.91C138.43 14.21 138.71 14.41 139.03 14.46L150.84 16.18L142.29 24.51C142.05 24.74 141.95 25.07 142 25.4L144.02 37.16L133.46 31.61C133.17 31.46 132.82 31.46 132.53 31.61L121.97 37.16L123.99 25.4C124.05 25.08 123.94 24.74 123.7 24.51L115.15 16.18L126.96 14.46Z" fill="#291F71"/>
</svg>
