<svg width="154" height="119" viewBox="0 0 154 119" fill="none" xmlns="http://www.w3.org/2000/svg">
<rect width="153.817" height="119" rx="16" fill="#C82586"/>
<path d="M29.7973 85.832V97H27.5573V89.736L24.5653 97H22.8693L19.8613 89.736V97H17.6213V85.832H20.1653L23.7173 94.136L27.2693 85.832H29.7973ZM31.436 92.536C31.436 91.64 31.612 90.8453 31.964 90.152C32.3266 89.4587 32.812 88.9253 33.42 88.552C34.0386 88.1787 34.7266 87.992 35.484 87.992C36.1453 87.992 36.7213 88.1253 37.212 88.392C37.7133 88.6587 38.1133 88.9947 38.412 89.4V88.136H40.668V97H38.412V95.704C38.124 96.12 37.724 96.4667 37.212 96.744C36.7106 97.0107 36.1293 97.144 35.468 97.144C34.7213 97.144 34.0386 96.952 33.42 96.568C32.812 96.184 32.3266 95.6453 31.964 94.952C31.612 94.248 31.436 93.4427 31.436 92.536ZM38.412 92.568C38.412 92.024 38.3053 91.56 38.092 91.176C37.8786 90.7813 37.5906 90.4827 37.228 90.28C36.8653 90.0667 36.476 89.96 36.06 89.96C35.644 89.96 35.26 90.0613 34.908 90.264C34.556 90.4667 34.268 90.7653 34.044 91.16C33.8306 91.544 33.724 92.0027 33.724 92.536C33.724 93.0693 33.8306 93.5387 34.044 93.944C34.268 94.3387 34.556 94.6427 34.908 94.856C35.2706 95.0693 35.6546 95.176 36.06 95.176C36.476 95.176 36.8653 95.0747 37.228 94.872C37.5906 94.6587 37.8786 94.36 38.092 93.976C38.3053 93.5813 38.412 93.112 38.412 92.568ZM45.4637 89.976V94.264C45.4637 94.5627 45.533 94.7813 45.6717 94.92C45.821 95.048 46.0664 95.112 46.4077 95.112H47.4477V97H46.0397C44.1517 97 43.2077 96.0827 43.2077 94.248V89.976H42.1517V88.136H43.2077V85.944H45.4637V88.136H47.4477V89.976H45.4637ZM57.2988 92.376C57.2988 92.696 57.2775 92.984 57.2348 93.24H50.7548C50.8082 93.88 51.0322 94.3813 51.4268 94.744C51.8215 95.1067 52.3068 95.288 52.8828 95.288C53.7148 95.288 54.3068 94.9307 54.6588 94.216H57.0748C56.8188 95.0693 56.3282 95.7733 55.6028 96.328C54.8775 96.872 53.9868 97.144 52.9308 97.144C52.0775 97.144 51.3095 96.9573 50.6268 96.584C49.9548 96.2 49.4268 95.6613 49.0428 94.968C48.6695 94.2747 48.4828 93.4747 48.4828 92.568C48.4828 91.6507 48.6695 90.8453 49.0428 90.152C49.4162 89.4587 49.9388 88.9253 50.6108 88.552C51.2828 88.1787 52.0562 87.992 52.9308 87.992C53.7735 87.992 54.5255 88.1733 55.1868 88.536C55.8588 88.8987 56.3762 89.416 56.7388 90.088C57.1122 90.7493 57.2988 91.512 57.2988 92.376ZM54.9788 91.736C54.9682 91.16 54.7602 90.7013 54.3548 90.36C53.9495 90.008 53.4535 89.832 52.8668 89.832C52.3122 89.832 51.8428 90.0027 51.4588 90.344C51.0855 90.6747 50.8562 91.1387 50.7708 91.736H54.9788ZM69.9418 88.008C71.0298 88.008 71.9045 88.344 72.5658 89.016C73.2378 89.6773 73.5738 90.6053 73.5738 91.8V97H71.3338V92.104C71.3338 91.4107 71.1578 90.8827 70.8058 90.52C70.4538 90.1467 69.9738 89.96 69.3658 89.96C68.7578 89.96 68.2725 90.1467 67.9098 90.52C67.5578 90.8827 67.3818 91.4107 67.3818 92.104V97H65.1418V92.104C65.1418 91.4107 64.9658 90.8827 64.6138 90.52C64.2618 90.1467 63.7818 89.96 63.1738 89.96C62.5552 89.96 62.0645 90.1467 61.7018 90.52C61.3498 90.8827 61.1738 91.4107 61.1738 92.104V97H58.9338V88.136H61.1738V89.208C61.4618 88.8347 61.8298 88.5413 62.2778 88.328C62.7365 88.1147 63.2378 88.008 63.7818 88.008C64.4752 88.008 65.0938 88.1573 65.6378 88.456C66.1818 88.744 66.6032 89.16 66.9018 89.704C67.1898 89.192 67.6058 88.7813 68.1498 88.472C68.7045 88.1627 69.3018 88.008 69.9418 88.008ZM75.1235 92.536C75.1235 91.64 75.2995 90.8453 75.6515 90.152C76.0141 89.4587 76.4995 88.9253 77.1075 88.552C77.7261 88.1787 78.4141 87.992 79.1715 87.992C79.8328 87.992 80.4088 88.1253 80.8995 88.392C81.4008 88.6587 81.8008 88.9947 82.0995 89.4V88.136H84.3555V97H82.0995V95.704C81.8115 96.12 81.4115 96.4667 80.8995 96.744C80.3981 97.0107 79.8168 97.144 79.1555 97.144C78.4088 97.144 77.7261 96.952 77.1075 96.568C76.4995 96.184 76.0141 95.6453 75.6515 94.952C75.2995 94.248 75.1235 93.4427 75.1235 92.536ZM82.0995 92.568C82.0995 92.024 81.9928 91.56 81.7795 91.176C81.5661 90.7813 81.2781 90.4827 80.9155 90.28C80.5528 90.0667 80.1635 89.96 79.7475 89.96C79.3315 89.96 78.9475 90.0613 78.5955 90.264C78.2435 90.4667 77.9555 90.7653 77.7315 91.16C77.5181 91.544 77.4115 92.0027 77.4115 92.536C77.4115 93.0693 77.5181 93.5387 77.7315 93.944C77.9555 94.3387 78.2435 94.6427 78.5955 94.856C78.9581 95.0693 79.3421 95.176 79.7475 95.176C80.1635 95.176 80.5528 95.0747 80.9155 94.872C81.2781 94.6587 81.5661 94.36 81.7795 93.976C81.9928 93.5813 82.0995 93.112 82.0995 92.568ZM81.7955 85.832L78.1155 87.512V85.912L81.7955 84.008V85.832ZM89.1512 89.976V94.264C89.1512 94.5627 89.2205 94.7813 89.3592 94.92C89.5085 95.048 89.7539 95.112 90.0952 95.112H91.1352V97H89.7272C87.8392 97 86.8952 96.0827 86.8952 94.248V89.976H85.8392V88.136H86.8952V85.944H89.1512V88.136H91.1352V89.976H89.1512ZM93.8823 87.08C93.4877 87.08 93.157 86.9573 92.8903 86.712C92.6343 86.456 92.5063 86.1413 92.5063 85.768C92.5063 85.3947 92.6343 85.0853 92.8903 84.84C93.157 84.584 93.4877 84.456 93.8823 84.456C94.277 84.456 94.6023 84.584 94.8583 84.84C95.125 85.0853 95.2583 85.3947 95.2583 85.768C95.2583 86.1413 95.125 86.456 94.8583 86.712C94.6023 86.9573 94.277 87.08 93.8823 87.08ZM94.9863 88.136V97H92.7463V88.136H94.9863ZM96.6235 92.568C96.6235 91.6507 96.8101 90.8507 97.1835 90.168C97.5568 89.4747 98.0741 88.9413 98.7355 88.568C99.3968 88.184 100.154 87.992 101.007 87.992C102.106 87.992 103.013 88.2693 103.727 88.824C104.453 89.368 104.938 90.136 105.183 91.128H102.767C102.639 90.744 102.421 90.4453 102.111 90.232C101.813 90.008 101.439 89.896 100.991 89.896C100.351 89.896 99.8448 90.1307 99.4715 90.6C99.0981 91.0587 98.9115 91.7147 98.9115 92.568C98.9115 93.4107 99.0981 94.0667 99.4715 94.536C99.8448 94.9947 100.351 95.224 100.991 95.224C101.898 95.224 102.49 94.8187 102.767 94.008H105.183C104.938 94.968 104.453 95.7307 103.727 96.296C103.002 96.8613 102.095 97.144 101.007 97.144C100.154 97.144 99.3968 96.9573 98.7355 96.584C98.0741 96.2 97.5568 95.6667 97.1835 94.984C96.8101 94.2907 96.6235 93.4853 96.6235 92.568ZM106.248 92.536C106.248 91.64 106.424 90.8453 106.776 90.152C107.139 89.4587 107.624 88.9253 108.232 88.552C108.851 88.1787 109.539 87.992 110.296 87.992C110.958 87.992 111.534 88.1253 112.024 88.392C112.526 88.6587 112.926 88.9947 113.224 89.4V88.136H115.48V97H113.224V95.704C112.936 96.12 112.536 96.4667 112.024 96.744C111.523 97.0107 110.942 97.144 110.28 97.144C109.534 97.144 108.851 96.952 108.232 96.568C107.624 96.184 107.139 95.6453 106.776 94.952C106.424 94.248 106.248 93.4427 106.248 92.536ZM113.224 92.568C113.224 92.024 113.118 91.56 112.904 91.176C112.691 90.7813 112.403 90.4827 112.04 90.28C111.678 90.0667 111.288 89.96 110.872 89.96C110.456 89.96 110.072 90.0613 109.72 90.264C109.368 90.4667 109.08 90.7653 108.856 91.16C108.643 91.544 108.536 92.0027 108.536 92.536C108.536 93.0693 108.643 93.5387 108.856 93.944C109.08 94.3387 109.368 94.6427 109.72 94.856C110.083 95.0693 110.467 95.176 110.872 95.176C111.288 95.176 111.678 95.0747 112.04 94.872C112.403 94.6587 112.691 94.36 112.904 93.976C113.118 93.5813 113.224 93.112 113.224 92.568Z" fill="white"/>
<path d="M129.041 30C128.633 30 128.233 30.1173 127.894 30.3371C127.554 30.5568 127.29 30.8692 127.133 31.2346C126.977 31.6001 126.936 32.0022 127.016 32.3902C127.096 32.7781 127.292 33.1345 127.581 33.4142C127.87 33.6939 128.238 33.8844 128.638 33.9616C129.039 34.0387 129.454 33.9991 129.831 33.8478C130.208 33.6964 130.531 33.44 130.758 33.1111C130.985 32.7822 131.106 32.3956 131.106 32C131.106 31.4696 130.888 30.9609 130.501 30.5858C130.114 30.2107 129.589 30 129.041 30Z" fill="white"/>
<path d="M130.188 25.6629C129.849 25.8827 129.449 26 129.041 26C128.493 26 127.968 25.7893 127.581 25.4142C127.194 25.0391 126.976 24.5304 126.976 24C126.976 23.6044 127.097 23.2178 127.324 22.8889C127.551 22.56 127.874 22.3036 128.251 22.1522C128.628 22.0009 129.043 21.9613 129.444 22.0384C129.844 22.1156 130.212 22.3061 130.501 22.5858C130.79 22.8655 130.986 23.2219 131.066 23.6098C131.146 23.9978 131.105 24.3999 130.948 24.7654C130.792 25.1308 130.528 25.4432 130.188 25.6629Z" fill="white"/>
<g clip-path="url(#clip0)">
<path d="M40.19 20.6532H28.1699L23.4517 36.7425C23.309 37.1713 22.9042 37.4682 22.4393 37.4837C22.4262 37.4837 22.4135 37.484 22.4011 37.484C21.9514 37.484 21.5448 37.219 21.3766 36.8124L19.4477 32.1412H17.6204C17.011 32.1413 16.5173 31.6628 16.5173 31.0726C16.5173 30.4824 17.0115 30.0039 17.6204 30.0039H20.1947C20.6453 30.0039 21.0516 30.2699 21.2192 30.6759L22.2881 33.2644L26.3151 19.2578C26.4617 18.8157 26.8863 18.516 27.3655 18.516H40.1901C40.7997 18.516 41.2933 18.9945 41.2933 19.5845C41.2933 20.1745 40.7992 20.6532 40.19 20.6532ZM40.7845 35.013L36.4359 30.2814L40.5799 25.8255C40.6531 25.7472 40.6709 25.6346 40.6275 25.538C40.5828 25.4416 40.4843 25.3794 40.3752 25.3794H37.7536C37.6735 25.3794 37.5979 25.4133 37.5447 25.472L34.7631 28.5965L32.0029 25.473C31.9507 25.4136 31.8742 25.3794 31.7934 25.3794H29.052C28.9433 25.3794 28.8448 25.4413 28.8008 25.5371C28.7558 25.6332 28.7742 25.7457 28.8466 25.8241L32.9443 30.2815L28.63 35.014C28.5579 35.0929 28.5408 35.2052 28.5848 35.3007C28.63 35.3968 28.7285 35.4578 28.8364 35.4578H31.5536C31.6354 35.4578 31.713 35.4229 31.7652 35.3618L34.6446 32.0148L37.5924 35.3643C37.6452 35.4241 37.7218 35.4582 37.8025 35.4582H40.5792C40.6882 35.4582 40.7867 35.3968 40.8308 35.3007C40.8752 35.2042 40.8574 35.0918 40.7845 35.013Z" fill="white"/>
</g>
<defs>
<clipPath id="clip0">
<rect width="24.7759" height="24" fill="white" transform="translate(16.5173 16)"/>
</clipPath>
</defs>
</svg>
