<svg width="153" height="119" viewBox="0 0 153 119" fill="none" xmlns="http://www.w3.org/2000/svg">
<rect x="0.215332" width="152.785" height="119" rx="16" fill="#C82586"/>
<mask id="mask0" mask-type="alpha" maskUnits="userSpaceOnUse" x="0" y="0" width="153" height="119">
<rect x="0.215332" width="152.785" height="119" rx="16" fill="#C82586"/>
</mask>
<g mask="url(#mask0)">
</g>
<g clip-path="url(#clip0)">
<path d="M35.5723 17.7523C29.739 14.3066 22.0993 16.1005 18.5422 21.7511C14.9851 27.4018 16.837 34.8022 22.6703 38.2479C22.9953 38.4399 23.326 38.6153 23.6612 38.7751C23.6667 38.7776 23.6721 38.7803 23.6776 38.7828C25.4102 39.6052 27.2647 40.0001 29.1009 40.0001C33.2825 40.0001 37.3687 37.9532 39.7005 34.2491C43.2576 28.5984 41.4057 21.198 35.5723 17.7523ZM26.1151 18.1974L25.9639 18.7795L22.7331 20.5409L22.0742 20.3803C23.2264 19.3776 24.5989 18.6318 26.1151 18.1974ZM23.1381 31.1204L22.9643 31.3068C22.4237 31.8863 22.1916 32.6604 22.3276 33.4303L22.8174 36.2029C20.8397 34.7819 19.4491 32.7557 18.8619 30.4091C18.4185 28.637 18.469 26.8242 18.9879 25.1208L22.0296 26.807C22.3311 26.9742 22.4825 27.3189 22.3977 27.6453C22.1786 28.4889 22.4161 29.3699 23.0331 30.0018L23.1261 30.097C23.4033 30.3809 23.4085 30.8305 23.1381 31.1204ZM29.5748 38.2193L29.3853 37.0988L29.538 37.0333C30.0891 36.7967 30.7327 36.9767 31.0686 37.4615L31.4268 37.9785C30.8117 38.1122 30.1925 38.1924 29.5748 38.2193ZM38.1343 33.324C36.968 35.1768 35.2649 36.5912 33.2401 37.4174C33.2244 37.3882 33.2073 37.3595 33.1879 37.3315L32.5917 36.4711C31.7585 35.2686 30.1616 34.8218 28.7946 35.4088L27.9938 35.7526C27.6122 35.9166 27.393 36.3095 27.4605 36.7086L27.7024 38.1383C26.7356 38.0116 25.7884 37.7532 24.8841 37.3671L24.1357 33.1305C24.0952 32.9012 24.1643 32.6706 24.3254 32.498L24.4992 32.3117C25.4072 31.3383 25.3895 29.8291 24.4589 28.876L24.3659 28.7808C24.1822 28.5926 24.1114 28.3302 24.1766 28.0789C24.4613 26.9832 23.953 25.826 22.9407 25.2647L19.6673 23.4501C19.8023 23.1877 19.9489 22.9294 20.1083 22.6762C20.2838 22.3975 20.4718 22.1289 20.6708 21.8704L22.6402 22.3505C22.714 22.3685 22.7891 22.3774 22.864 22.3774C23.0204 22.3774 23.1755 22.3386 23.3138 22.2632L27.2069 20.1408C27.4262 20.0212 27.5852 19.8197 27.6465 19.5833L28.075 17.934C28.0847 17.8965 28.0909 17.859 28.0955 17.8216C28.4442 17.788 28.7928 17.7702 29.1405 17.7702C31.0558 17.7702 32.9403 18.2789 34.6171 19.2694C34.8124 19.3847 35.0024 19.506 35.1881 19.632C35.1869 19.6333 35.1856 19.6342 35.1844 19.6354L33.6904 21.2173L29.7529 21.3654C29.4483 21.3768 29.1695 21.5342 29.0089 21.7851L27.2937 24.4664C27.0944 24.7777 27.1129 25.1756 27.3402 25.4684L28.4259 26.867C28.6507 27.1566 28.7734 27.5155 28.7715 27.8778L28.7617 29.7013C28.7579 30.4225 29.0815 31.1035 29.6496 31.5696C30.1073 31.9453 30.6809 32.1462 31.2702 32.1462C31.4124 32.1462 31.5556 32.1345 31.6982 32.1107L33.7891 31.7622C34.5594 31.6339 35.2749 31.2562 35.8038 30.6989C36.1194 30.3663 36.55 30.1751 37.0161 30.1607C37.4817 30.1456 37.9245 30.3104 38.2615 30.6227L38.8496 31.1679C38.9263 31.2391 39.0128 31.2938 39.1043 31.3341C38.8581 32.0213 38.5346 32.6881 38.1343 33.324ZM39.5851 29.3901L39.5299 29.339C38.834 28.6938 37.9206 28.3548 36.9576 28.3846C35.9947 28.4144 35.1054 28.8091 34.4534 29.4962C34.1973 29.766 33.851 29.9488 33.4781 30.011L31.3871 30.3595C31.1164 30.4046 30.9252 30.2875 30.8353 30.2138C30.7453 30.14 30.5947 29.9765 30.5961 29.7105L30.6058 27.8871C30.6098 27.1387 30.3562 26.3972 29.892 25.7991L29.1833 24.8861L30.3114 23.1227L34.1442 22.9786C34.3891 22.9694 34.62 22.8657 34.7854 22.6905L36.5381 20.835C36.5576 20.8144 36.5755 20.7929 36.5927 20.7711C37.9519 22.0845 38.9169 23.7378 39.3807 25.5912C39.697 26.855 39.7618 28.1394 39.5851 29.3901Z" fill="white"/>
</g>
<path d="M25.9809 89.288C25.9809 89.8853 25.8369 90.4453 25.5489 90.968C25.2716 91.4907 24.8289 91.912 24.2209 92.232C23.6236 92.552 22.8662 92.712 21.9489 92.712H20.0769V97H17.8369V85.832H21.9489C22.8129 85.832 23.5489 85.9813 24.1569 86.28C24.7649 86.5787 25.2182 86.9893 25.5169 87.512C25.8262 88.0347 25.9809 88.6267 25.9809 89.288ZM21.8529 90.904C22.4716 90.904 22.9302 90.7653 23.2289 90.488C23.5276 90.2 23.6769 89.8 23.6769 89.288C23.6769 88.2 23.0689 87.656 21.8529 87.656H20.0769V90.904H21.8529ZM31.5073 97.144C30.654 97.144 29.886 96.9573 29.2033 96.584C28.5206 96.2 27.982 95.6613 27.5873 94.968C27.2033 94.2747 27.0113 93.4747 27.0113 92.568C27.0113 91.6613 27.2086 90.8613 27.6033 90.168C28.0086 89.4747 28.558 88.9413 29.2513 88.568C29.9446 88.184 30.718 87.992 31.5713 87.992C32.4246 87.992 33.198 88.184 33.8913 88.568C34.5846 88.9413 35.1286 89.4747 35.5233 90.168C35.9286 90.8613 36.1313 91.6613 36.1313 92.568C36.1313 93.4747 35.9233 94.2747 35.5073 94.968C35.102 95.6613 34.5473 96.2 33.8433 96.584C33.15 96.9573 32.3713 97.144 31.5073 97.144ZM31.5073 95.192C31.9126 95.192 32.2913 95.096 32.6433 94.904C33.006 94.7013 33.294 94.4027 33.5073 94.008C33.7206 93.6133 33.8273 93.1333 33.8273 92.568C33.8273 91.7253 33.6033 91.08 33.1553 90.632C32.718 90.1733 32.1793 89.944 31.5393 89.944C30.8993 89.944 30.3606 90.1733 29.9233 90.632C29.4966 91.08 29.2833 91.7253 29.2833 92.568C29.2833 93.4107 29.4913 94.0613 29.9073 94.52C30.334 94.968 30.8673 95.192 31.5073 95.192ZM40.0144 89.512C40.3024 89.0427 40.6757 88.6747 41.1344 88.408C41.6037 88.1413 42.1371 88.008 42.7344 88.008V90.36H42.1424C41.4384 90.36 40.9051 90.5253 40.5424 90.856C40.1904 91.1867 40.0144 91.7627 40.0144 92.584V97H37.7744V88.136H40.0144V89.512ZM46.8512 89.976V94.264C46.8512 94.5627 46.9205 94.7813 47.0592 94.92C47.2085 95.048 47.4538 95.112 47.7952 95.112H48.8352V97H47.4272C45.5392 97 44.5952 96.0827 44.5952 94.248V89.976H43.5392V88.136H44.5952V85.944H46.8512V88.136H48.8352V89.976H46.8512ZM58.8143 88.136V97H56.5583V95.88C56.2703 96.264 55.8916 96.568 55.4223 96.792C54.9636 97.0053 54.4623 97.112 53.9183 97.112C53.225 97.112 52.6116 96.968 52.0783 96.68C51.545 96.3813 51.1236 95.9493 50.8143 95.384C50.5156 94.808 50.3663 94.1253 50.3663 93.336V88.136H52.6063V93.016C52.6063 93.72 52.7823 94.264 53.1343 94.648C53.4863 95.0213 53.9663 95.208 54.5743 95.208C55.193 95.208 55.6783 95.0213 56.0303 94.648C56.3823 94.264 56.5583 93.72 56.5583 93.016V88.136H58.8143ZM64.4964 87.992C65.1577 87.992 65.7391 88.1253 66.2404 88.392C66.7417 88.648 67.1364 88.984 67.4244 89.4V88.136H69.6804V97.064C69.6804 97.8853 69.5151 98.616 69.1844 99.256C68.8537 99.9067 68.3577 100.419 67.6964 100.792C67.0351 101.176 66.2351 101.368 65.2964 101.368C64.0377 101.368 63.0031 101.075 62.1924 100.488C61.3924 99.9013 60.9391 99.1013 60.8324 98.088H63.0564C63.1737 98.4933 63.4244 98.8133 63.8084 99.048C64.2031 99.2933 64.6777 99.416 65.2324 99.416C65.8831 99.416 66.4111 99.2187 66.8164 98.824C67.2217 98.44 67.4244 97.8533 67.4244 97.064V95.688C67.1364 96.104 66.7364 96.4507 66.2244 96.728C65.7231 97.0053 65.1471 97.144 64.4964 97.144C63.7497 97.144 63.0671 96.952 62.4484 96.568C61.8297 96.184 61.3391 95.6453 60.9764 94.952C60.6244 94.248 60.4484 93.4427 60.4484 92.536C60.4484 91.64 60.6244 90.8453 60.9764 90.152C61.3391 89.4587 61.8244 88.9253 62.4324 88.552C63.0511 88.1787 63.7391 87.992 64.4964 87.992ZM67.4244 92.568C67.4244 92.024 67.3177 91.56 67.1044 91.176C66.8911 90.7813 66.6031 90.4827 66.2404 90.28C65.8777 90.0667 65.4884 89.96 65.0724 89.96C64.6564 89.96 64.2724 90.0613 63.9204 90.264C63.5684 90.4667 63.2804 90.7653 63.0564 91.16C62.8431 91.544 62.7364 92.0027 62.7364 92.536C62.7364 93.0693 62.8431 93.5387 63.0564 93.944C63.2804 94.3387 63.5684 94.6427 63.9204 94.856C64.2831 95.0693 64.6671 95.176 65.0724 95.176C65.4884 95.176 65.8777 95.0747 66.2404 94.872C66.6031 94.6587 66.8911 94.36 67.1044 93.976C67.3177 93.5813 67.4244 93.112 67.4244 92.568ZM80.2362 88.136V97H77.9802V95.88C77.6922 96.264 77.3135 96.568 76.8442 96.792C76.3855 97.0053 75.8842 97.112 75.3402 97.112C74.6468 97.112 74.0335 96.968 73.5002 96.68C72.9668 96.3813 72.5455 95.9493 72.2362 95.384C71.9375 94.808 71.7882 94.1253 71.7882 93.336V88.136H74.0282V93.016C74.0282 93.72 74.2042 94.264 74.5562 94.648C74.9082 95.0213 75.3882 95.208 75.9962 95.208C76.6148 95.208 77.1002 95.0213 77.4522 94.648C77.8042 94.264 77.9802 93.72 77.9802 93.016V88.136H80.2362ZM90.6863 92.376C90.6863 92.696 90.665 92.984 90.6223 93.24H84.1423C84.1956 93.88 84.4196 94.3813 84.8143 94.744C85.209 95.1067 85.6943 95.288 86.2703 95.288C87.1023 95.288 87.6943 94.9307 88.0463 94.216H90.4623C90.2063 95.0693 89.7156 95.7733 88.9903 96.328C88.265 96.872 87.3743 97.144 86.3183 97.144C85.465 97.144 84.697 96.9573 84.0143 96.584C83.3423 96.2 82.8143 95.6613 82.4303 94.968C82.057 94.2747 81.8703 93.4747 81.8703 92.568C81.8703 91.6507 82.057 90.8453 82.4303 90.152C82.8036 89.4587 83.3263 88.9253 83.9983 88.552C84.6703 88.1787 85.4436 87.992 86.3183 87.992C87.161 87.992 87.913 88.1733 88.5743 88.536C89.2463 88.8987 89.7636 89.416 90.1263 90.088C90.4996 90.7493 90.6863 91.512 90.6863 92.376ZM88.3663 91.736C88.3556 91.16 88.1476 90.7013 87.7423 90.36C87.337 90.008 86.841 89.832 86.2543 89.832C85.6996 89.832 85.2303 90.0027 84.8463 90.344C84.473 90.6747 84.2436 91.1387 84.1583 91.736H88.3663ZM86.2863 86.136L83.9023 87.48V85.848L86.2863 84.552L88.6543 85.848V87.48L86.2863 86.136ZM95.7133 97.144C94.988 97.144 94.3373 97.016 93.7613 96.76C93.1853 96.4933 92.7266 96.136 92.3853 95.688C92.0546 95.24 91.8733 94.744 91.8413 94.2H94.0973C94.14 94.5413 94.3053 94.824 94.5933 95.048C94.892 95.272 95.26 95.384 95.6973 95.384C96.124 95.384 96.4546 95.2987 96.6893 95.128C96.9346 94.9573 97.0573 94.7387 97.0573 94.472C97.0573 94.184 96.908 93.9707 96.6093 93.832C96.3213 93.6827 95.8573 93.5227 95.2173 93.352C94.556 93.192 94.012 93.0267 93.5853 92.856C93.1693 92.6853 92.8066 92.424 92.4973 92.072C92.1986 91.72 92.0493 91.2453 92.0493 90.648C92.0493 90.1573 92.188 89.7093 92.4653 89.304C92.7533 88.8987 93.1586 88.5787 93.6813 88.344C94.2146 88.1093 94.8386 87.992 95.5533 87.992C96.6093 87.992 97.452 88.2587 98.0813 88.792C98.7106 89.3147 99.0573 90.024 99.1213 90.92H96.9773C96.9453 90.568 96.796 90.2907 96.5293 90.088C96.2733 89.8747 95.9266 89.768 95.4893 89.768C95.084 89.768 94.7693 89.8427 94.5453 89.992C94.332 90.1413 94.2253 90.3493 94.2253 90.616C94.2253 90.9147 94.3746 91.144 94.6733 91.304C94.972 91.4533 95.436 91.608 96.0653 91.768C96.7053 91.928 97.2333 92.0933 97.6493 92.264C98.0653 92.4347 98.4226 92.7013 98.7213 93.064C99.0306 93.416 99.1906 93.8853 99.2013 94.472C99.2013 94.984 99.0573 95.4427 98.7693 95.848C98.492 96.2533 98.0866 96.5733 97.5533 96.808C97.0306 97.032 96.4173 97.144 95.7133 97.144Z" fill="white"/>
<path d="M128.224 30C127.816 30 127.417 30.1173 127.077 30.3371C126.738 30.5568 126.473 30.8692 126.317 31.2346C126.161 31.6001 126.12 32.0022 126.199 32.3902C126.279 32.7781 126.476 33.1345 126.764 33.4142C127.053 33.6939 127.421 33.8844 127.822 33.9616C128.222 34.0387 128.637 33.9991 129.014 33.8478C129.392 33.6964 129.714 33.44 129.941 33.1111C130.168 32.7822 130.289 32.3956 130.289 32C130.289 31.4696 130.071 30.9609 129.684 30.5858C129.297 30.2107 128.772 30 128.224 30Z" fill="white"/>
<path d="M129.371 25.6629C129.032 25.8827 128.633 26 128.224 26C127.677 26 127.152 25.7893 126.764 25.4142C126.377 25.0391 126.16 24.5304 126.16 24C126.16 23.6044 126.281 23.2178 126.508 22.8889C126.734 22.56 127.057 22.3036 127.434 22.1522C127.811 22.0009 128.227 21.9613 128.627 22.0384C129.028 22.1156 129.396 22.3061 129.684 22.5858C129.973 22.8655 130.17 23.2219 130.249 23.6098C130.329 23.9978 130.288 24.3999 130.132 24.7654C129.976 25.1308 129.711 25.4432 129.371 25.6629Z" fill="white"/>
<defs>
<clipPath id="clip0">
<rect width="24.7759" height="24" fill="white" transform="translate(16.7329 16)"/>
</clipPath>
</defs>
</svg>
